<mxfile host="app.diagrams.net" agent="Mozilla/5.0 (Windows NT 10.0; Win64; x64) AppleWebKit/537.36 (KHTML, like Gecko) Chrome/131.0.0.0 Safari/537.36" version="26.0.2">
  <diagram name="第 1 页" id="Xz5PU06GAnDAfzOE8Gnp">
    <mxGraphModel dx="1050" dy="530" grid="1" gridSize="10" guides="1" tooltips="1" connect="1" arrows="1" fold="1" page="1" pageScale="1" pageWidth="827" pageHeight="1169" math="0" shadow="0">
      <root>
        <mxCell id="0" />
        <mxCell id="1" parent="0" />
        <mxCell id="2vLCRVX1jUAMyT6jkuKO-1" value="繁忙疏於管理的人&lt;div&gt;&lt;br&gt;&lt;/div&gt;" style="shape=umlActor;verticalLabelPosition=bottom;verticalAlign=top;html=1;outlineConnect=0;" parent="1" vertex="1">
          <mxGeometry x="70" y="280" width="30" height="60" as="geometry" />
        </mxCell>
        <mxCell id="2vLCRVX1jUAMyT6jkuKO-2" value="管理會員" style="ellipse;whiteSpace=wrap;html=1;" parent="1" vertex="1">
          <mxGeometry x="170" y="200" width="100" height="70" as="geometry" />
        </mxCell>
        <mxCell id="2vLCRVX1jUAMyT6jkuKO-3" value="建立日程" style="ellipse;whiteSpace=wrap;html=1;" parent="1" vertex="1">
          <mxGeometry x="200" y="300" width="110" height="70" as="geometry" />
        </mxCell>
        <mxCell id="2vLCRVX1jUAMyT6jkuKO-4" value="維護日程" style="ellipse;whiteSpace=wrap;html=1;" parent="1" vertex="1">
          <mxGeometry x="260" y="550" width="120" height="80" as="geometry" />
        </mxCell>
        <mxCell id="2vLCRVX1jUAMyT6jkuKO-5" value="ChatGpt API" style="shape=umlActor;verticalLabelPosition=bottom;verticalAlign=top;html=1;outlineConnect=0;" parent="1" vertex="1">
          <mxGeometry x="500" y="370" width="30" height="60" as="geometry" />
        </mxCell>
        <mxCell id="2vLCRVX1jUAMyT6jkuKO-7" value="" style="endArrow=none;html=1;rounded=0;entryX=0;entryY=0.5;entryDx=0;entryDy=0;" parent="1" target="2vLCRVX1jUAMyT6jkuKO-3" edge="1">
          <mxGeometry width="50" height="50" relative="1" as="geometry">
            <mxPoint x="100" y="320" as="sourcePoint" />
            <mxPoint x="150" y="270" as="targetPoint" />
          </mxGeometry>
        </mxCell>
        <mxCell id="2vLCRVX1jUAMyT6jkuKO-8" value="" style="endArrow=none;html=1;rounded=0;" parent="1" source="2vLCRVX1jUAMyT6jkuKO-1" edge="1">
          <mxGeometry width="50" height="50" relative="1" as="geometry">
            <mxPoint x="210" y="380" as="sourcePoint" />
            <mxPoint x="170" y="240" as="targetPoint" />
          </mxGeometry>
        </mxCell>
        <mxCell id="2vLCRVX1jUAMyT6jkuKO-9" value="" style="endArrow=none;html=1;rounded=0;exitX=0;exitY=0;exitDx=0;exitDy=0;" parent="1" source="2vLCRVX1jUAMyT6jkuKO-4" edge="1">
          <mxGeometry width="50" height="50" relative="1" as="geometry">
            <mxPoint x="90" y="410" as="sourcePoint" />
            <mxPoint x="140" y="360" as="targetPoint" />
          </mxGeometry>
        </mxCell>
        <mxCell id="2vLCRVX1jUAMyT6jkuKO-12" value="&amp;lt;&amp;lt;extend&amp;gt;&amp;gt;" style="html=1;verticalAlign=bottom;labelBackgroundColor=none;endArrow=open;endFill=0;dashed=1;rounded=0;entryX=0.571;entryY=1.029;entryDx=0;entryDy=0;entryPerimeter=0;exitX=0.297;exitY=0.04;exitDx=0;exitDy=0;exitPerimeter=0;" parent="1" source="2vLCRVX1jUAMyT6jkuKO-4" target="2vLCRVX1jUAMyT6jkuKO-3" edge="1">
          <mxGeometry width="160" relative="1" as="geometry">
            <mxPoint x="250" y="460" as="sourcePoint" />
            <mxPoint x="410" y="460" as="targetPoint" />
          </mxGeometry>
        </mxCell>
        <mxCell id="2vLCRVX1jUAMyT6jkuKO-13" value="" style="endArrow=none;html=1;rounded=0;entryX=0.5;entryY=0;entryDx=0;entryDy=0;entryPerimeter=0;exitX=0.5;exitY=1;exitDx=0;exitDy=0;" parent="1" source="2vLCRVX1jUAMyT6jkuKO-14" edge="1">
          <mxGeometry width="50" height="50" relative="1" as="geometry">
            <mxPoint x="530" y="320" as="sourcePoint" />
            <mxPoint x="517.5" y="370" as="targetPoint" />
          </mxGeometry>
        </mxCell>
        <mxCell id="2vLCRVX1jUAMyT6jkuKO-14" value="推薦日程" style="ellipse;whiteSpace=wrap;html=1;" parent="1" vertex="1">
          <mxGeometry x="440" y="230" width="120" height="80" as="geometry" />
        </mxCell>
        <mxCell id="2vLCRVX1jUAMyT6jkuKO-16" value="使用動態排程" style="ellipse;whiteSpace=wrap;html=1;" parent="1" vertex="1">
          <mxGeometry x="50" y="530" width="120" height="80" as="geometry" />
        </mxCell>
        <mxCell id="2vLCRVX1jUAMyT6jkuKO-17" value="" style="endArrow=none;html=1;rounded=0;exitX=0.5;exitY=0;exitDx=0;exitDy=0;" parent="1" source="2vLCRVX1jUAMyT6jkuKO-16" edge="1">
          <mxGeometry width="50" height="50" relative="1" as="geometry">
            <mxPoint x="40" y="390" as="sourcePoint" />
            <mxPoint x="90" y="340" as="targetPoint" />
          </mxGeometry>
        </mxCell>
        <mxCell id="dfAzhgAMpCQyfqDTIuD1-2" value="&amp;lt;&amp;lt;extend&amp;gt;&amp;gt;" style="html=1;verticalAlign=bottom;labelBackgroundColor=none;endArrow=open;endFill=0;dashed=1;rounded=0;exitX=0.307;exitY=0.985;exitDx=0;exitDy=0;exitPerimeter=0;" parent="1" source="2vLCRVX1jUAMyT6jkuKO-14" target="2vLCRVX1jUAMyT6jkuKO-4" edge="1">
          <mxGeometry width="160" relative="1" as="geometry">
            <mxPoint x="442.76" y="310.00000000000006" as="sourcePoint" />
            <mxPoint x="340" y="522.8" as="targetPoint" />
          </mxGeometry>
        </mxCell>
        <mxCell id="dfAzhgAMpCQyfqDTIuD1-3" value="&amp;lt;&amp;lt;extend&amp;gt;&amp;gt;" style="html=1;verticalAlign=bottom;labelBackgroundColor=none;endArrow=open;endFill=0;dashed=1;rounded=0;exitX=0;exitY=0.5;exitDx=0;exitDy=0;entryX=1;entryY=0.5;entryDx=0;entryDy=0;" parent="1" source="2vLCRVX1jUAMyT6jkuKO-14" target="2vLCRVX1jUAMyT6jkuKO-3" edge="1">
          <mxGeometry width="160" relative="1" as="geometry">
            <mxPoint x="482" y="100" as="sourcePoint" />
            <mxPoint x="313" y="343" as="targetPoint" />
          </mxGeometry>
        </mxCell>
      </root>
    </mxGraphModel>
  </diagram>
</mxfile>
